<svg xmlns="http://www.w3.org/2000/svg" width="20.84" height="20.84" viewBox="0 0 20.84 20.84">
    <g id="clock-circular-outline">
        <g id="Group_30" data-name="Group 30">
            <path id="Path_60" d="M10.42 0a10.42 10.42 0 1 0 10.42 10.42A10.432 10.432 0 0 0 10.42 0zm0 18.623a8.2 8.2 0 1 1 8.2-8.2 8.212 8.212 0 0 1-8.2 8.2z" class="cls-1" data-name="Path 60"/>
            <path id="Path_61" d="M50.465 23.318h-4.683v-5.63a.858.858 0 0 0-1.716 0v6.488a.858.858 0 0 0 .858.858h5.541a.858.858 0 0 0 0-1.716z" class="cls-1" data-name="Path 61" transform="translate(-34.614 -13.22)"/>
        </g>
    </g>
</svg>
