<svg xmlns="http://www.w3.org/2000/svg" width="17.344" height="15.957" viewBox="0 0 17.344 15.957">
    <g id="comment" transform="translate(0 1.332)">
        <path id="Path_9063" d="M14.959-1.332H2.384A2.387 2.387 0 0 0 0 1.052v7.7a2.387 2.387 0 0 0 2.376 2.384v3.492l5.019-3.492h7.565a2.387 2.387 0 0 0 2.384-2.384v-7.7a2.387 2.387 0 0 0-2.385-2.384zm1.368 10.08a1.37 1.37 0 0 1-1.368 1.368H7.076l-3.684 2.563v-2.563H2.384a1.37 1.37 0 0 1-1.368-1.368v-7.7A1.37 1.37 0 0 1 2.384-.316h12.575a1.37 1.37 0 0 1 1.368 1.368zm0 0" class="svg-icon" data-name="Path 9063"/>
        <path id="Path_9064" d="M171.293 131.172h8.06v1.016h-8.06zm0 0" class="svg-icon" data-name="Path 9064" transform="translate(-166.651 -128.913)"/>
        <path id="Path_9065" d="M171.293 211.172h8.06v1.016h-8.06zm0 0" class="svg-icon" data-name="Path 9065" transform="translate(-166.651 -206.745)"/>
        <path id="Path_9066" d="M171.293 291.172h8.06v1.016h-8.06zm0 0" class="svg-icon" data-name="Path 9066" transform="translate(-166.651 -284.577)"/>
    </g>
</svg>
