<svg xmlns="http://www.w3.org/2000/svg" width="16.89" height="18.19" viewBox="0 0 16.89 18.19">
    <defs>
        <style>
            .cls-1{fill:#6f7484}
        </style>
    </defs>
    <g id="notification_new" data-name="notification new" transform="translate(-18.273)">
        <path id="Path_49" d="M32.25 10.257a13.21 13.21 0 0 1-.984-5.06 3.615 3.615 0 0 0-.974-2.659 4.363 4.363 0 0 0-2.68-1.188.916.916 0 0 0 .081-.376.94.94 0 0 0-.284-.69.98.98 0 0 0-1.38 0 .94.94 0 0 0-.284.69.914.914 0 0 0 .081.376 4.362 4.362 0 0 0-2.68 1.188 3.615 3.615 0 0 0-.975 2.662 13.2 13.2 0 0 1-.985 5.06 10.352 10.352 0 0 1-2.913 4.035 1.318 1.318 0 0 0 1.3 1.3h4.547a2.6 2.6 0 0 0 5.2 0h4.547a1.318 1.318 0 0 0 1.3-1.3 10.36 10.36 0 0 1-2.917-4.038zm-5.532 7.12a1.784 1.784 0 0 1-1.787-1.787.162.162 0 0 1 .325 0 1.473 1.473 0 0 0 1.462 1.462.162.162 0 1 1 0 .325zm-6.588-3.086a12.368 12.368 0 0 0 2.5-4.177 14.484 14.484 0 0 0 .84-4.914q0-2.6 3.248-2.6t3.248 2.6a14.482 14.482 0 0 0 .837 4.918 12.366 12.366 0 0 0 2.5 4.177z" class="cls-1" data-name="Path 49"/>
    </g>
</svg>
