<svg xmlns="http://www.w3.org/2000/svg" width="15.894" height="22.604" viewBox="0 0 15.894 22.604">
    <g id="placeholder" transform="translate(-76)">
        <g id="Group_1545" data-name="Group 1545" transform="translate(76)">
            <g id="Group_1544" data-name="Group 1544">
                <path id="Path_9007" d="M83.947 0a7.948 7.948 0 0 0-6.761 12.126l6.308 10.166a.662.662 0 0 0 .563.313h.005a.662.662 0 0 0 .563-.322l6.147-10.264A7.948 7.948 0 0 0 83.947 0zm5.689 11.338l-5.589 9.332-5.735-9.242a6.627 6.627 0 1 1 11.324-.09z" class="cls-1" data-name="Path 9007" transform="translate(-76)"/>
            </g>
        </g>
        <g id="Group_1547" data-name="Group 1547" transform="translate(79.973 3.973)">
            <g id="Group_1546" data-name="Group 1546">
                <path id="Path_9008" d="M169.973 90a3.973 3.973 0 1 0 3.973 3.973A3.978 3.978 0 0 0 169.973 90zm0 6.631a2.658 2.658 0 1 1 2.653-2.658 2.66 2.66 0 0 1-2.653 2.658z" class="cls-1" data-name="Path 9008" transform="translate(-166 -90)"/>
            </g>
        </g>
    </g>
</svg>
