<svg xmlns="http://www.w3.org/2000/svg" width="16.537" height="18.041" viewBox="0 0 16.537 18.041">
    <g id="trash" transform="translate(-18.269)">
        <g id="Group_1504" data-name="Group 1504" transform="translate(18.269)">
            <path id="Path_8973" d="M34.7 3.112a.366.366 0 0 0-.27-.106H30.8l-.822-1.961a1.628 1.628 0 0 0-.634-.74A1.659 1.659 0 0 0 28.417 0h-3.759a1.658 1.658 0 0 0-.928.305 1.627 1.627 0 0 0-.634.74l-.822 1.961h-3.629a.362.362 0 0 0-.376.376v.752a.362.362 0 0 0 .376.376h1.127v11.182a2.569 2.569 0 0 0 .552 1.662 1.654 1.654 0 0 0 1.327.687h9.772a1.637 1.637 0 0 0 1.327-.71 2.667 2.667 0 0 0 .552-1.686V4.51h1.128a.362.362 0 0 0 .376-.376v-.752a.366.366 0 0 0-.106-.27zm-10.218-1.48a.331.331 0 0 1 .2-.129h3.723a.332.332 0 0 1 .2.129l.564 1.374h-5.262zM31.8 15.645a1.331 1.331 0 0 1-.082.476 1.059 1.059 0 0 1-.17.317c-.059.067-.1.1-.123.1h-9.773c-.023 0-.064-.033-.123-.1a1.054 1.054 0 0 1-.17-.317 1.335 1.335 0 0 1-.082-.476V4.51H31.8v11.135z" class="svg-icon" data-name="Path 8973" transform="translate(-18.269)"/>
            <path id="Path_8974" d="M128.281 171.966h.752a.362.362 0 0 0 .376-.376v-6.765a.361.361 0 0 0-.376-.376h-.752a.361.361 0 0 0-.376.376v6.765a.362.362 0 0 0 .376.376z" class="svg-icon" data-name="Path 8974" transform="translate(-123.395 -157.684)"/>
            <path id="Path_8975" d="M201.37 171.966h.752a.362.362 0 0 0 .376-.376v-6.765a.362.362 0 0 0-.376-.376h-.752a.361.361 0 0 0-.376.376v6.765a.362.362 0 0 0 .376.376z" class="svg-icon" data-name="Path 8975" transform="translate(-193.477 -157.684)"/>
            <path id="Path_8976" d="M274.459 171.966h.752a.361.361 0 0 0 .376-.376v-6.765a.361.361 0 0 0-.376-.376h-.752a.361.361 0 0 0-.376.376v6.765a.362.362 0 0 0 .376.376z" class="svg-icon" data-name="Path 8976" transform="translate(-263.559 -157.684)"/>
        </g>
    </g>
</svg>
