<svg xmlns="http://www.w3.org/2000/svg" width="23.106" height="14.727" viewBox="0 0 23.106 14.727">
    <g id="view" transform="translate(0 -92.835)">
        <g id="Group_1570" data-name="Group 1570" transform="translate(0 92.835)">
            <g id="Group_1569" data-name="Group 1569">
                <path id="Path_9010" d="M22.959 99.749c-.206-.282-5.125-6.914-11.406-6.914S.353 99.467.147 99.749a.762.762 0 0 0 0 .9c.206.282 5.125 6.914 11.406 6.914s11.2-6.632 11.406-6.914a.762.762 0 0 0 0-.9zm-11.406 6.289c-4.627 0-8.635-4.4-9.821-5.841 1.185-1.44 5.184-5.839 9.821-5.839s8.634 4.4 9.821 5.841c-1.185 1.44-5.184 5.839-9.821 5.839z" class="cls-1" data-name="Path 9010" transform="translate(0 -92.835)"/>
            </g>
        </g>
        <g id="Group_1572" data-name="Group 1572" transform="translate(6.982 95.628)">
            <g id="Group_1571" data-name="Group 1571">
                <path id="Path_9011" d="M159.292 154.725a4.57 4.57 0 1 0 4.57 4.57 4.576 4.576 0 0 0-4.57-4.57zm0 7.617a3.047 3.047 0 1 1 3.047-3.047 3.05 3.05 0 0 1-3.047 3.047z" class="cls-1" data-name="Path 9011" transform="translate(-154.722 -154.725)"/>
            </g>
        </g>
    </g>
</svg>
