<svg xmlns="http://www.w3.org/2000/svg" width="18.507" height="18.69" viewBox="0 0 18.507 18.69">
    <g id="wallet" transform="translate(-1.431 .25)">
        <path id="Path_9062" d="M19.688 8.473h-.873V4.459a1.747 1.747 0 0 0-1.745-1.746h-1.182L14.678.539a1.047 1.047 0 0 0-1.424-.407L8.612 2.713H3.426a1.747 1.747 0 0 0-1.745 1.746v11.985a1.747 1.747 0 0 0 1.745 1.746H17.07a1.747 1.747 0 0 0 1.745-1.745v-3.52h.873V8.473zM17.07 3.412a1.045 1.045 0 0 1 1.036.931h-1.312l-.517-.931zM13.594.742a.356.356 0 0 1 .474.135L16 4.342H7.119zm4.524 15.7a1.049 1.049 0 0 1-1.047 1.047H3.426a1.049 1.049 0 0 1-1.047-1.047V4.459a1.049 1.049 0 0 1 1.047-1.047h3.93l-1.674.931H3.645a.349.349 0 0 0 0 .7h14.472v3.431h-2.553a2.153 2.153 0 0 0-2.15 2.15v.15a2.153 2.153 0 0 0 2.15 2.15h2.553zm.873-4.218h-3.427a1.454 1.454 0 0 1-1.452-1.452v-.15a1.454 1.454 0 0 1 1.452-1.452h3.426zm-2.356-1.5a.771.771 0 1 1-.771-.771.771.771 0 0 1 .77.775z" class="svg-icon" data-name="Path 9062"/>
    </g>
</svg>
