<svg xmlns="http://www.w3.org/2000/svg" width="14.061" height="15.689" viewBox="0 0 14.061 15.689">
    <g id="writing" transform="translate(-26.57)">
        <g id="Group_1574" data-name="Group 1574" transform="translate(26.57)">
            <g id="Group_1573" data-name="Group 1573">
                <path id="Path_9012" d="M114 200.613a.613.613 0 0 0-.613-.613h-6.312a.613.613 0 1 0 0 1.226h6.312a.613.613 0 0 0 .613-.613z" class="cls-1" data-name="Path 9012" transform="translate(-104.011 -193.872)"/>
                <path id="Path_9013" d="M107.072 280a.613.613 0 0 0 0 1.226h3.834a.613.613 0 0 0 0-1.226z" class="cls-1" data-name="Path 9013" transform="translate(-104.011 -271.42)"/>
                <path id="Path_9014" d="M31.071 14.463h-2.05a1.227 1.227 0 0 1-1.221-1.226V2.451a1.227 1.227 0 0 1 1.226-1.226h7.535a1.227 1.227 0 0 1 1.226 1.226V6.22a.613.613 0 1 0 1.226 0V2.451A2.454 2.454 0 0 0 36.556 0h-7.535a2.454 2.454 0 0 0-2.451 2.451v10.786a2.454 2.454 0 0 0 2.451 2.451h2.05a.613.613 0 1 0 0-1.226z" class="cls-1" data-name="Path 9014" transform="translate(-26.57)"/>
                <path id="Path_9015" d="M250.334 272.562a1.84 1.84 0 0 0-2.6 0l-3.365 3.357a.613.613 0 0 0-.154.256l-.733 2.412a.613.613 0 0 0 .75.769l2.474-.685a.613.613 0 0 0 .269-.157l3.358-3.351a1.841 1.841 0 0 0 .001-2.601zm-4.109 4.97l-1.244.345.364-1.2 2.27-2.265.867.867zm3.243-3.237l-.119.118-.867-.867.118-.118a.613.613 0 0 1 .867.866z" class="cls-1" data-name="Path 9015" transform="translate(-236.811 -263.689)"/>
                <path id="Path_9016" d="M113.384 120h-6.312a.613.613 0 1 0 0 1.226h6.312a.613.613 0 1 0 0-1.226z" class="cls-1" data-name="Path 9016" transform="translate(-104.011 -116.323)"/>
            </g>
        </g>
    </g>
</svg>
